<svg xmlns="http://www.w3.org/2000/svg" width="1850" height="1710" viewBox="0 0 1850 1710" role="img"><title>技术架构</title><rect width="100%" height="100%" fill="white"/>
<polyline points="405.0,190.0 405.0,280.0" fill="none" stroke="#555" stroke-width="1.5"/>
<polygon points="405.00,280.00 400.65,271.00 409.35,271.00" fill="#555"/>
<polyline points="1395.0,190.0 1395.0,280.0" fill="none" stroke="#555" stroke-width="1.5"/>
<polygon points="1395.00,280.00 1390.65,271.00 1399.35,271.00" fill="#555"/>
<polyline points="770.0,310.0 1030.0,310.0" fill="none" stroke="#555" stroke-width="1.5"/>
<polygon points="1030.00,310.00 1021.00,314.35 1021.00,305.65" fill="#555"/>
<polygon points="770.00,310.00 779.00,305.65 779.00,314.35" fill="#555"/>
<polyline points="265.0,420.0 265.0,540.0" fill="none" stroke="#555" stroke-width="1.5"/>
<polygon points="265.00,540.00 260.65,531.00 269.35,531.00" fill="#555"/>
<polyline points="1190.0,420.0 1190.0,540.0" fill="none" stroke="#555" stroke-width="1.5"/>
<polygon points="1190.00,540.00 1185.65,531.00 1194.35,531.00" fill="#555"/>
<polyline points="1600.0,420.0 1600.0,540.0" fill="none" stroke="#555" stroke-width="1.5"/>
<polygon points="1600.00,540.00 1595.65,531.00 1604.35,531.00" fill="#555"/>
<polyline points="770.0,365.0 880.0,365.0 880.0,500.0 785.0,500.0 785.0,540.0" fill="none" stroke="#555" stroke-width="1.5"/>
<polygon points="785.00,540.00 780.65,531.00 789.35,531.00" fill="#555"/>
<polyline points="1030.0,365.0 995.0,365.0 995.0,510.0 900.0,510.0 900.0,540.0" fill="none" stroke="#555" stroke-width="1.5"/>
<polygon points="900.00,540.00 895.65,531.00 904.35,531.00" fill="#555"/>
<polyline points="170.0,680.0 170.0,800.0" fill="none" stroke="#555" stroke-width="1.5"/>
<polygon points="170.00,800.00 165.65,791.00 174.35,791.00" fill="#555"/>
<polyline points="450.0,680.0 530.0,680.0 530.0,1150.0 490.0,1150.0" fill="none" stroke="#555" stroke-width="1.5"/>
<polygon points="490.00,1150.00 499.00,1145.65 499.00,1154.35" fill="#555"/>
<polygon points="450.00,680.00 459.00,675.65 459.00,684.35" fill="#555"/>
<polyline points="40.0,610.0 15.0,610.0 15.0,1445.0 40.0,1445.0" fill="none" stroke="#555" stroke-width="1.5"/>
<polygon points="40.00,1445.00 31.00,1449.35 31.00,1440.65" fill="#555"/>
<polygon points="40.00,610.00 31.00,614.35 31.00,605.65" fill="#555"/>
<polyline points="490.0,1445.0 700.0,1445.0 700.0,1255.0" fill="none" stroke="#555" stroke-width="1.5"/>
<polygon points="700.00,1255.00 704.35,1264.00 695.65,1264.00" fill="#555"/>
<polygon points="490.00,1445.00 499.00,1440.65 499.00,1449.35" fill="#555"/>
<polyline points="490.0,590.0 610.0,590.0" fill="none" stroke="#555" stroke-width="1.5"/>
<polygon points="610.00,590.00 601.00,594.35 601.00,585.65" fill="#555"/>
<polyline points="490.0,640.0 560.0,640.0 560.0,890.0 610.0,890.0" fill="none" stroke="#555" stroke-width="1.5"/>
<polygon points="610.00,890.00 601.00,894.35 601.00,885.65" fill="#555"/>
<polyline points="1030.0,620.0 995.0,620.0 995.0,890.0 960.0,890.0" fill="none" stroke="#555" stroke-width="1.5"/>
<polygon points="960.00,890.00 969.00,885.65 969.00,894.35" fill="#555"/>
<polyline points="390.0,680.0 390.0,735.0 585.0,735.0 585.0,1170.0 610.0,1170.0" fill="none" stroke="#555" stroke-width="1.5"/>
<polygon points="610.00,1170.00 601.00,1174.35 601.00,1165.65" fill="#555"/>
<polyline points="1190.0,680.0 1190.0,880.0" fill="none" stroke="#555" stroke-width="1.5"/>
<polygon points="1190.00,880.00 1185.65,871.00 1194.35,871.00" fill="#555"/>
<polygon points="1190.00,680.00 1194.35,689.00 1185.65,689.00" fill="#555"/>
<polyline points="1600.0,680.0 1600.0,880.0" fill="none" stroke="#555" stroke-width="1.5"/>
<polygon points="1600.00,880.00 1595.65,871.00 1604.35,871.00" fill="#555"/>
<polyline points="1760.0,610.0 1780.0,610.0 1780.0,1220.0 1760.0,1220.0" fill="none" stroke="#555" stroke-width="1.5"/>
<polygon points="1760.00,1220.00 1769.00,1215.65 1769.00,1224.35" fill="#555"/>
<polyline points="1030.0,990.0 1000.0,990.0 1000.0,1170.0 960.0,1170.0" fill="none" stroke="#555" stroke-width="1.5"/>
<polygon points="960.00,1170.00 969.00,1165.65 969.00,1174.35" fill="#555"/>
<polyline points="1030.0,1220.0 960.0,1220.0" fill="none" stroke="#555" stroke-width="1.5"/>
<polygon points="960.00,1220.00 969.00,1215.65 969.00,1224.35" fill="#555"/>
<polyline points="1100.0,1060.0 1100.0,1100.0 1005.0,1100.0 1005.0,1360.0 1130.0,1360.0 1130.0,1400.0" fill="none" stroke="#555" stroke-width="1.5"/>
<polygon points="1130.00,1400.00 1125.65,1391.00 1134.35,1391.00" fill="#555"/>
<polyline points="1300.0,1300.0 1300.0,1400.0" fill="none" stroke="#555" stroke-width="1.5"/>
<polygon points="1300.00,1400.00 1295.65,1391.00 1304.35,1391.00" fill="#555"/>
<polyline points="1760.0,400.0 1810.0,400.0 1810.0,1360.0 1360.0,1360.0 1360.0,1400.0" fill="none" stroke="#555" stroke-width="1.5"/>
<polygon points="1360.00,1400.00 1355.65,1391.00 1364.35,1391.00" fill="#555"/>
<polygon points="1760.00,400.00 1769.00,395.65 1769.00,404.35" fill="#555"/>
<polyline points="1390.0,1475.0 1440.0,1475.0" fill="none" stroke="#555" stroke-width="1.5"/>
<polygon points="1440.00,1475.00 1431.00,1479.35 1431.00,1470.65" fill="#555"/>
<polygon points="1390.00,1475.00 1399.00,1470.65 1399.00,1479.35" fill="#555"/>
<rect x="40.0" y="60.0" width="730.0" height="130.0" fill="white" stroke="#444" stroke-width="1.5"/>
<text x="405.0" y="96.56" text-anchor="middle" font-family="STHeiti, sans-serif" font-size="21" fill="#222">TAP AI 前端</text>
<text x="405.0" y="127.56" text-anchor="middle" font-family="STHeiti, sans-serif" font-size="21" fill="#222">React / TypeScript / MDXEditor / Monaco</text>
<text x="405.0" y="158.56" text-anchor="middle" font-family="STHeiti, sans-serif" font-size="21" fill="#222">Tapper：知识库、Skills、Agents / 测试管理</text>
<rect x="1030.0" y="60.0" width="730.0" height="130.0" fill="white" stroke="#444" stroke-width="1.5"/>
<text x="1395.0" y="96.56" text-anchor="middle" font-family="STHeiti, sans-serif" font-size="21" fill="#222">TAP 前端</text>
<text x="1395.0" y="127.56" text-anchor="middle" font-family="STHeiti, sans-serif" font-size="21" fill="#222">React / TypeScript / ECharts</text>
<text x="1395.0" y="158.56" text-anchor="middle" font-family="STHeiti, sans-serif" font-size="21" fill="#222">LCA / Load Testing / Test Insights</text>
<rect x="40.0" y="280.0" width="730.0" height="140.0" fill="white" stroke="#444" stroke-width="1.5"/>
<text x="405.0" y="321.56" text-anchor="middle" font-family="STHeiti, sans-serif" font-size="21" fill="#222">TAP AI 后端 · FastAPI</text>
<text x="405.0" y="352.56" text-anchor="middle" font-family="STHeiti, sans-serif" font-size="21" fill="#222">知识 / 用例 / 手工执行 / 资源包与版本</text>
<text x="405.0" y="383.56" text-anchor="middle" font-family="STHeiti, sans-serif" font-size="21" fill="#222">AI 生成与受控数据查询 / Jira 连接</text>
<rect x="1030.0" y="280.0" width="730.0" height="140.0" fill="white" stroke="#444" stroke-width="1.5"/>
<text x="1395.0" y="321.56" text-anchor="middle" font-family="STHeiti, sans-serif" font-size="21" fill="#222">TAP 后端 · FastAPI</text>
<text x="1395.0" y="352.56" text-anchor="middle" font-family="STHeiti, sans-serif" font-size="21" fill="#222">脚本版本 / 调试 / 功能与负载执行</text>
<text x="1395.0" y="383.56" text-anchor="middle" font-family="STHeiti, sans-serif" font-size="21" fill="#222">Insights 指标 API / 质量规则 / 权限</text>
<rect x="40.0" y="540.0" width="450.0" height="140.0" fill="white" stroke="#444" stroke-width="1.5"/>
<text x="265.0" y="581.56" text-anchor="middle" font-family="STHeiti, sans-serif" font-size="21" fill="#222">TAP AI 后台任务</text>
<text x="265.0" y="612.56" text-anchor="middle" font-family="STHeiti, sans-serif" font-size="21" fill="#222">解析 / 检索 / LangGraph 生成</text>
<text x="265.0" y="643.56" text-anchor="middle" font-family="STHeiti, sans-serif" font-size="21" fill="#222">资源包导入、校验与市场同步</text>
<rect x="1030.0" y="540.0" width="320.0" height="140.0" fill="white" stroke="#444" stroke-width="1.5"/>
<text x="1190.0" y="581.56" text-anchor="middle" font-family="STHeiti, sans-serif" font-size="21" fill="#222">调试与本地连接服务</text>
<text x="1190.0" y="612.56" text-anchor="middle" font-family="STHeiti, sans-serif" font-size="21" fill="#222">录制 / 单步 / 画面</text>
<text x="1190.0" y="643.56" text-anchor="middle" font-family="STHeiti, sans-serif" font-size="21" fill="#222">独占设备 / 断线恢复</text>
<rect x="1440.0" y="540.0" width="320.0" height="140.0" fill="white" stroke="#444" stroke-width="1.5"/>
<text x="1600.0" y="581.56" text-anchor="middle" font-family="STHeiti, sans-serif" font-size="21" fill="#222">正式执行服务</text>
<text x="1600.0" y="612.56" text-anchor="middle" font-family="STHeiti, sans-serif" font-size="21" fill="#222">固定运行清单 / 项目配额</text>
<text x="1600.0" y="643.56" text-anchor="middle" font-family="STHeiti, sans-serif" font-size="21" fill="#222">Jenkins 调度 / 取消</text>
<rect x="40.0" y="800.0" width="450.0" height="140.0" fill="white" stroke="#444" stroke-width="1.5"/>
<text x="265.0" y="826.06" text-anchor="middle" font-family="STHeiti, sans-serif" font-size="21" fill="#222">统一模型接口</text>
<text x="265.0" y="857.06" text-anchor="middle" font-family="STHeiti, sans-serif" font-size="21" fill="#222">LiteLLM：生成 / 视觉 / 文字向量</text>
<text x="265.0" y="888.06" text-anchor="middle" font-family="STHeiti, sans-serif" font-size="21" fill="#222">本地：图像向量 / 模型重排</text>
<text x="265.0" y="919.06" text-anchor="middle" font-family="STHeiti, sans-serif" font-size="21" fill="#222">能力校验 / 超时 / 用量</text>
<rect x="40.0" y="1080.0" width="450.0" height="140.0" fill="white" stroke="#444" stroke-width="1.5"/>
<text x="265.0" y="1121.56" text-anchor="middle" font-family="STHeiti, sans-serif" font-size="21" fill="#222">Milvus</text>
<text x="265.0" y="1152.56" text-anchor="middle" font-family="STHeiti, sans-serif" font-size="21" fill="#222">关键词 / 文字向量 / 图像向量</text>
<text x="265.0" y="1183.56" text-anchor="middle" font-family="STHeiti, sans-serif" font-size="21" fill="#222">文档证据检索</text>
<rect x="40.0" y="1370.0" width="450.0" height="150.0" fill="white" stroke="#444" stroke-width="1.5"/>
<text x="265.0" y="1401.06" text-anchor="middle" font-family="STHeiti, sans-serif" font-size="21" fill="#222">chDB 隔离分析任务</text>
<text x="265.0" y="1432.06" text-anchor="middle" font-family="STHeiti, sans-serif" font-size="21" fill="#222">获准文件 / 数据快照</text>
<text x="265.0" y="1463.06" text-anchor="middle" font-family="STHeiti, sans-serif" font-size="21" fill="#222">查数 / 比较 / 关联 / 汇总</text>
<text x="265.0" y="1494.06" text-anchor="middle" font-family="STHeiti, sans-serif" font-size="21" fill="#222">按任务限制范围与资源</text>
<rect x="610.0" y="540.0" width="350.0" height="155.0" fill="white" stroke="#444" stroke-width="1.5"/>
<text x="785.0" y="573.56" text-anchor="middle" font-family="STHeiti, sans-serif" font-size="21" fill="#222">MySQL</text>
<text x="785.0" y="604.56" text-anchor="middle" font-family="STHeiti, sans-serif" font-size="21" fill="#222">资产与版本 / 审批 / 运行</text>
<text x="785.0" y="635.56" text-anchor="middle" font-family="STHeiti, sans-serif" font-size="21" fill="#222">映射 / 接收账本 / 规则与判定</text>
<text x="785.0" y="666.56" text-anchor="middle" font-family="STHeiti, sans-serif" font-size="21" fill="#222">各产品只修改自己的业务表</text>
<rect x="610.0" y="820.0" width="350.0" height="140.0" fill="white" stroke="#444" stroke-width="1.5"/>
<text x="785.0" y="861.56" text-anchor="middle" font-family="STHeiti, sans-serif" font-size="21" fill="#222">Redis</text>
<text x="785.0" y="892.56" text-anchor="middle" font-family="STHeiti, sans-serif" font-size="21" fill="#222">任务提示 / 短期缓存</text>
<text x="785.0" y="923.56" text-anchor="middle" font-family="STHeiti, sans-serif" font-size="21" fill="#222">设备占用 / 执行租约</text>
<rect x="610.0" y="1100.0" width="350.0" height="155.0" fill="white" stroke="#444" stroke-width="1.5"/>
<text x="785.0" y="1133.56" text-anchor="middle" font-family="STHeiti, sans-serif" font-size="21" fill="#222">对象存储</text>
<text x="785.0" y="1164.56" text-anchor="middle" font-family="STHeiti, sans-serif" font-size="21" fill="#222">原件 / 模板 / 完整资源包</text>
<text x="785.0" y="1195.56" text-anchor="middle" font-family="STHeiti, sans-serif" font-size="21" fill="#222">报告 / 原始指标 / 视频</text>
<text x="785.0" y="1226.56" text-anchor="middle" font-family="STHeiti, sans-serif" font-size="21" fill="#222">按项目授权下载</text>
<rect x="1030.0" y="880.0" width="730.0" height="180.0" fill="white" stroke="#444" stroke-width="1.5"/>
<text x="1395.0" y="910.56" text-anchor="middle" font-family="STHeiti, sans-serif" font-size="21" fill="#222">功能测试执行池</text>
<text x="1395.0" y="941.56" text-anchor="middle" font-family="STHeiti, sans-serif" font-size="21" fill="#222">Web：Playwright / TypeScript</text>
<text x="1395.0" y="972.56" text-anchor="middle" font-family="STHeiti, sans-serif" font-size="21" fill="#222">本地 Web：Electron 连接器</text>
<text x="1395.0" y="1003.56" text-anchor="middle" font-family="STHeiti, sans-serif" font-size="21" fill="#222">Android：Appium / UiAutomator2</text>
<text x="1395.0" y="1034.56" text-anchor="middle" font-family="STHeiti, sans-serif" font-size="21" fill="#222">iOS：Appium / XCUITest / macOS</text>
<rect x="1030.0" y="1140.0" width="730.0" height="160.0" fill="white" stroke="#444" stroke-width="1.5"/>
<text x="1395.0" y="1176.06" text-anchor="middle" font-family="STHeiti, sans-serif" font-size="21" fill="#222">独立负载执行池</text>
<text x="1395.0" y="1207.06" text-anchor="middle" font-family="STHeiti, sans-serif" font-size="21" fill="#222">k6 协议压测 / Playwright 浏览器负载</text>
<text x="1395.0" y="1238.06" text-anchor="middle" font-family="STHeiti, sans-serif" font-size="21" fill="#222">独立 CPU、内存、网络 / 私网节点</text>
<text x="1395.0" y="1269.06" text-anchor="middle" font-family="STHeiti, sans-serif" font-size="21" fill="#222">指标采集 / 心跳与本地停止</text>
<rect x="1030.0" y="1400.0" width="360.0" height="150.0" fill="white" stroke="#444" stroke-width="1.5"/>
<text x="1210.0" y="1446.56" text-anchor="middle" font-family="STHeiti, sans-serif" font-size="21" fill="#222">Insights 后台任务与查询</text>
<text x="1210.0" y="1477.56" text-anchor="middle" font-family="STHeiti, sans-serif" font-size="21" fill="#222">接入 / 映射 / 去重 / 重算</text>
<text x="1210.0" y="1508.56" text-anchor="middle" font-family="STHeiti, sans-serif" font-size="21" fill="#222">指标 / 质量检查 / 通知</text>
<rect x="1440.0" y="1400.0" width="320.0" height="150.0" fill="white" stroke="#444" stroke-width="1.5"/>
<text x="1600.0" y="1446.56" text-anchor="middle" font-family="STHeiti, sans-serif" font-size="21" fill="#222">ClickHouse（新增）</text>
<text x="1600.0" y="1477.56" text-anchor="middle" font-family="STHeiti, sans-serif" font-size="21" fill="#222">测试 / 缺陷 / 研发 / 性能</text>
<text x="1600.0" y="1508.56" text-anchor="middle" font-family="STHeiti, sans-serif" font-size="21" fill="#222">共享明细与历史分析</text>
<text x="590.0" y="238.0" text-anchor="middle" font-family="STHeiti, sans-serif" font-size="20" fill="#444">HTTPS 接口 / SSE 进度</text>
<text x="1595.0" y="238.0" text-anchor="middle" font-family="STHeiti, sans-serif" font-size="20" fill="#444">HTTPS / SSE / WebSocket</text>
<text x="900.0" y="258.0" text-anchor="middle" font-family="STHeiti, sans-serif" font-size="20" fill="#444">接口 / 更新通知</text>
<text x="530.0" y="483.0" text-anchor="middle" font-family="STHeiti, sans-serif" font-size="20" fill="#444">业务记录归 MySQL，Redis 提醒处理</text>
<text x="1268.0" y="768.0" text-anchor="middle" font-family="STHeiti, sans-serif" font-size="20" fill="#444">操作与画面</text>
<text x="1650.0" y="768.0" text-anchor="middle" font-family="STHeiti, sans-serif" font-size="20" fill="#444">脚本执行</text>
<text x="955.0" y="1643.0" text-anchor="middle" font-family="STHeiti, sans-serif" font-size="20" fill="#444">chDB 分析任务内数据；ClickHouse 支撑共享历史分析；两者都经后台授权，AI 根据实际结果解释。</text>
</svg>