<svg xmlns="http://www.w3.org/2000/svg" width="1399" height="384" viewBox="0 0 1399 384" role="img" aria-label="Tapper">
  <g fill="#14201D" fill-rule="evenodd">
    <path d="M4 38.36L4.24 56.36L4.71 57.91L5.71 58.26L91.71 58.6L95.71 58.66L96.69 59.36L97.2 296.36L100.71 297.03L159.71 296.76L160.43 295.36L160.76 287.36L160.82 59.36L161.71 58.66L222.66 58.36L234.71 55.75L242.71 52.45L251.97 45.36L260.12 34.36L267.91 16.36L269.8 7.36L269.72 4.36L5.71 4L4.12 5.36Z"/>
    <path d="M215.07 186.36L216.42 204.36L220.58 222.36L225.29 235.36L234.43 252.36L245.37 266.36L253.71 274.6L268.71 285.68L280.71 292.41L298.71 298.69L312.71 301.69L330.71 302.7L346.71 301.57L356.71 299.53L374.43 293.36L386.71 286.74L400.71 275.96L401.38 277.36L401.95 295.36L402.71 296.76L458.71 296.58L459.43 294.36L459.65 286.36L459.22 70.36L448.71 69.72L402.71 70.02L401.4 71.36L400.71 91.66L385.71 80.27L376.71 75.26L364.71 70.04L348.71 66.07L337.71 64.79L328.71 64.69L310.71 65.97L295.71 69.23L280.71 74.98L264.71 84.17L254.27 92.36L243.47 103.36L231.62 119.36L223.51 136.36L218.46 152.36L215.54 170.36ZM485.58 337.36L485.64 375.36L486.23 379.36L542.71 379.63L543.5 378.36L543.6 374.36L543.54 290.36L544.3 276.36L564.76 290.36L581.71 297.64L592.71 300.47L602.71 302.05L624.71 302.52L634.71 301.26L646.71 298.42L658.71 294.52L670.71 289.1L689.71 276.07L697.94 268.36L704.95 260.36L717.03 241.36L724.99 221.36L728.95 201.36L730.12 187.36L729.89 174.36L727.94 158.36L725.99 149.36L721.95 136.36L717.03 125.36L705.87 107.36L700.96 101.36L689.71 90.21L676.71 81.13L660.71 73.14L644.71 67.96L627.71 65.07L604.71 65.09L583.71 69.03L564.81 77.36L552.71 85.03L544.71 91.83L543.78 90.36L543.71 73.36L542.71 70.07L498.71 69.69L486.17 70.36ZM747.28 346.36L747.71 379.51L803.71 379.69L804.71 378.36L804.95 374.36L804.98 286.36L805.71 276.22L816.71 284.83L825.71 290.5L834.71 294.69L846.71 298.66L858.71 301.5L868.71 302.56L882.71 302.63L892.71 301.77L910.71 297.88L922.71 293.62L930.71 289.88L942.71 282.63L951.71 275.64L968.11 258.36L974.17 249.36L980.01 238.36L986.84 219.36L989.04 209.36L991.07 192.36L991.14 177.36L990.05 164.36L987.93 152.36L984.12 138.36L976.86 122.36L963.9 103.36L947.71 88.14L930.71 77.19L916.71 71.11L906.71 68.12L888.71 65.08L874.71 64.58L864.71 65.13L852.71 67.18L841.71 70.12L823.71 78.36L810.71 87.1L805.71 91.56L804.87 72.36L803.71 69.87L758.71 69.73L748.03 70.36L747.29 86.36ZM1005.44 181.36L1005.68 192.36L1007.32 207.36L1012.41 227.36L1019.67 244.36L1029.35 259.36L1038.52 269.36L1046.71 276.89L1059.71 285.94L1068.71 290.87L1082.71 296.5L1098.71 300.75L1118.71 302.76L1134.71 302.55L1143.71 301.48L1154.71 299.25L1166.71 295.54L1182.71 288.68L1200.71 276.4L1210.85 266.36L1221.83 251.36L1228.04 239.36L1230.93 230.36L1231.28 228.36L1230.71 227.71L1172.71 227.93L1162.71 238.6L1155.71 243.8L1151.71 245.75L1133.71 250.7L1117.71 250.88L1109.71 249.71L1102.71 247.7L1090.71 241.71L1081.6 234.36L1075.24 226.36L1071.63 220.36L1067.38 209.36L1066.26 203.36L1066.71 201.87L1234.71 201.16L1235.62 194.36L1235.9 180.36L1233.94 157.36L1228.92 137.36L1219.99 117.36L1208.71 101.73L1199.71 92.32L1190.71 85.17L1172.71 75.06L1152.71 68.07L1142.71 66.07L1127.71 64.74L1110.71 65.1L1096.71 67.12L1084.71 70.22L1072.71 74.92L1062.71 80L1051.71 87.23L1042.71 94.88L1031.7 106.36L1022.3 119.36L1017.53 128.36L1013.52 137.36L1008.49 154.36L1006.44 166.36ZM1254.73 95.36L1255.14 296.36L1258.71 297.07L1311.71 297L1312.8 296.36L1313 293.36L1312.88 169.36L1313.51 160.36L1315.46 151.36L1320.28 141.36L1324.71 136.03L1332.71 130.2L1341.71 125.94L1351.71 123.5L1366.71 122.01L1393.09 123.36L1393.79 122.36L1394.02 118.36L1394 70.36L1385.71 68.05L1374.71 66.82L1360.71 67.16L1348.71 69.1L1337.71 73.12L1328.71 77.99L1318.71 86.02L1310.71 95.74L1310.07 94.36L1309.45 71.36L1308.71 69.91L1255.71 69.92L1254.89 72.36ZM1067.21 158.36L1068.71 158.96L1081.71 159.28L1166.71 159.43L1173.71 159.1L1174.48 158.36L1172.05 148.36L1169.14 141.36L1164.17 134.36L1155.71 126.1L1147.71 121.3L1141.71 118.91L1133.71 117.08L1123.71 116.09L1112.71 116.61L1104.71 118.29L1095.71 121.84L1086.71 127.69L1078.71 134.8L1073.37 142.36L1070.32 148.36ZM274.03 183.36L274.41 193.36L278.4 209.36L285.39 222.36L290.71 228.95L298.71 236.54L309.71 243.36L321.71 247.48L333.71 249.51L342.71 249.55L355.71 247.73L367.71 243.78L378.71 236.71L387.73 228.36L394.98 217.36L399.02 208.36L402.16 195.36L402.41 177.36L400.89 165.36L396.79 153.36L388.94 140.36L381.71 132.96L370.71 125.14L357.71 120.04L345.71 117.9L329.71 118.1L317.71 120.9L304.71 127.06L294.71 134.36L287.44 142.36L279.51 155.36L275.49 168.36ZM542.79 182.36L543.42 195.36L546.35 208.36L550.55 218.36L557.55 228.36L567.71 237.6L575.71 242.54L585.71 246.7L602.71 249.69L617.71 248.76L630.71 245.47L635.71 243.46L643.71 238.68L649.71 233.54L659.01 223.36L666.18 210.36L669.98 196.36L670.98 186.36L669.95 169.36L667.18 159.36L662.08 148.36L654.71 138.36L643.71 128.77L635.71 124.16L621.71 119.1L610.71 117.83L598.71 117.98L583.71 121.01L571.71 126.85L561.71 134.77L553.53 144.36L547.66 155.36L543.48 170.36ZM804.03 179.36L804.51 195.36L807.4 209.36L812.38 219.36L817.71 227.07L827.71 236.76L838.71 243.61L850.71 247.65L861.71 249.37L877.71 248.87L887.71 246.68L898.71 242.46L907.71 236.62L917.2 227.36L923.93 217.36L928.99 206.36L931.86 192.36L931.97 177.36L930.08 164.36L925.89 153.36L919.03 142.36L912.71 135.04L899.71 125.75L885.71 119.99L875.71 118.1L861.71 117.82L848.71 120.07L836.71 124.98L823.71 133.79L815.31 143.36L809.42 153.36L805.33 166.36Z"/>
  </g>
</svg>
